                                                                        S      1
,,29Hstratusholder (v14~recovered),29Hstratusholder (v14~recovered),7HunG      1
known,7Hunknown,32,38,7,99,15,,1.,2,2HMM,1,0.08,15H20240319.155418,0.01,G      2
10000.,7Hunknown,7Hunknown,11,0,15H20240315.212720;                     G      3
     408       1                                       3        00000001D      1
     408       0               1       0                               0D      2
     124       2                                                00000000D      3
     124                       4       0                               0D      4
     308       6                                                00010200D      5
     308       0               1       0                               0D      6
     186       7                                                00010000D      7
     186            -173       1       0                               0D      8
     514       8                                                00010000D      9
     514                       2       1                               0D     10
     510      10                                                00010000D     11
     510            -173       1       1                               0D     12
     510      11                                                00010000D     13
     510            -173       1       1                               0D     14
     510      12                                                00010000D     15
     510            -173       1       1                               0D     16
     510      13                                                00010000D     17
     510            -173       1       1                               0D     18
     510      14                                                00010000D     19
     510            -173       1       1                               0D     20
     510      15                                                00010000D     21
     510            -173       1       1                               0D     22
     510      16                                                00010000D     23
     510            -173       1       1                               0D     24
     510      17                                                00010000D     25
     510            -173       1       1                               0D     26
     510      18                                                00010000D     27
     510            -173       1       1                               0D     28
     510      19                                                00010000D     29
     510            -173       1       1                               0D     30
     510      20                                                00010000D     31
     510            -173       1       1                               0D     32
     510      21                                                00010000D     33
     510            -173       1       1                               0D     34
     510      22                                                00010000D     35
     510            -173       1       1                               0D     36
     510      23                                                00010000D     37
     510            -173       1       1                               0D     38
     508      24                                                00010000D     39
     508                       1       1                               0D     40
     508      25                                                00010000D     41
     508                       2       1                               0D     42
     508      27                                                00010000D     43
     508                       1       1                               0D     44
     508      28                                                00010000D     45
     508                       1       1                               0D     46
     508      29                                                00010000D     47
     508                       1       1                               0D     48
     508      30                                                00010000D     49
     508                       2       1                               0D     50
     508      32                                                00010000D     51
     508                       2       1                               0D     52
     508      34                                                00010000D     53
     508                       1       1                               0D     54
     508      35                                                00010000D     55
     508                       1       1                               0D     56
     508      36                                                00010000D     57
     508                       1       1                               0D     58
     508      37                                                00010000D     59
     508                       1       1                               0D     60
     508      38                                                00010000D     61
     508                       2       1                               0D     62
     508      40                                                00010000D     63
     508                       2       1                               0D     64
     508      42                                                00010000D     65
     508                       2       1                               0D     66
     126      44                                                00010000D     67
     126       0               6       0                               0D     68
     126      50                                                00010000D     69
     126       0               4       0                               0D     70
     126      54                                                00010000D     71
     126       0               5       0                               0D     72
     126      59                                                00010000D     73
     126       0               4       0                               0D     74
     126      63                                                00010000D     75
     126       0               4       0                               0D     76
     126      67                                                00010000D     77
     126       0               3       0                               0D     78
     126      70                                                00010000D     79
     126       0               3       0                               0D     80
     126      73                                                00010000D     81
     126       0               2       0                               0D     82
     126      75                                                00010000D     83
     126       0               3       0                               0D     84
     126      78                                                00010000D     85
     126       0               6       0                               0D     86
     126      84                                                00010000D     87
     126       0               4       0                               0D     88
     126      88                                                00010000D     89
     126       0               4       0                               0D     90
     126      92                                                00010000D     91
     126       0               4       0                               0D     92
     126      96                                                00010000D     93
     126       0               5       0                               0D     94
     126     101                                                00010000D     95
     126       0               2       0                               0D     96
     126     103                                                00010000D     97
     126       0               5       0                               0D     98
     126     108                                                00010000D     99
     126       0               2       0                               0D    100
     126     110                                                00010000D    101
     126       0               3       0                               0D    102
     126     113                                                00010000D    103
     126       0               2       0                               0D    104
     126     115                                                00010000D    105
     126       0               3       0                               0D    106
     126     118                                                00010000D    107
     126       0               4       0                               0D    108
     126     122                                                00010000D    109
     126       0               3       0                               0D    110
     126     125                                                00010000D    111
     126       0               2       0                               0D    112
     126     127                                                00010000D    113
     126       0               4       0                               0D    114
     126     131                                                00010000D    115
     126       0               4       0                               0D    116
     126     135                                                00010000D    117
     126       0               5       0                               0D    118
     126     140                                                00010000D    119
     126       0               3       0                               0D    120
     126     143                                                00010000D    121
     126       0               4       0                               0D    122
     126     147                                                00010000D    123
     126       0               2       0                               0D    124
     126     149                                                00010000D    125
     126       0               3       0                               0D    126
     126     152                                                00010000D    127
     126       0               2       0                               0D    128
     126     154                                                00010000D    129
     126       0               2       0                               0D    130
     126     156                                                00010000D    131
     126       0               2       0                               0D    132
     126     158                                                00010000D    133
     126       0               2       0                               0D    134
     128     160                                                00010000D    135
     128       0    -173       9       0                               0D    136
     128     169                                                00010000D    137
     128       0    -173       6       0                               0D    138
     128     175                                                00010000D    139
     128       0    -173       7       0                               0D    140
     128     182                                                00010000D    141
     128       0    -173       8       0                               0D    142
     128     190                                                00010000D    143
     128       0    -173       5       0                               0D    144
     128     195                                                00010000D    145
     128       0    -173       6       0                               0D    146
     128     201                                                00010000D    147
     128       0    -173       6       0                               0D    148
     128     207                                                00010000D    149
     128       0    -173       6       0                               0D    150
     128     213                                                00010000D    151
     128       0    -173       8       0                               0D    152
     128     221                                                00010000D    153
     128       0    -173       5       0                               0D    154
     128     226                                                00010000D    155
     128       0    -173       6       0                               0D    156
     128     232                                                00010000D    157
     128       0    -173       4       0                               0D    158
     128     236                                                00010000D    159
     128       0    -173       4       0                               0D    160
     128     240                                                00010000D    161
     128       0    -173       5       0                               0D    162
     502     245                                                00010000D    163
     502                      10       1                               0D    164
     504     255                                                00010001D    165
     504                      10       1                               0D    166
     406     265                                                00000000D    167
     406                       1      15                               0D    168
     406     266                                                00000000D    169
     406                       1      15                               0D    170
     314     267                                                00000200D    171
     314                       2       0                               0D    172
     314     269                                                00000200D    173
     314                       2       0                               0D    174
     314     271                                                00000200D    175
     314                       2       0                               0D    176
408,5,0.,0.,0.,1.,0,1,169;                                             1P      1
124,1.,-5.59184738611533D-33,-1.04083408558608D-15,                    3P      2
-41.4541409627496,2.87490229460037D-32,0.999999999999998,              3P      3
7.8886090522101D-31,106.286598466159,1.04083408558608D-15,             3P      4
3.44556583370374D-46,1.,1.73826768736647D-13;                          3P      5
308,0,10Hanti slide,1,7;                                               5P      6
186,9,1,0,0,1,167;                                                     7P      7
514,14,11,1,13,1,15,1,17,1,19,1,21,1,23,1,25,1,27,1,29,1,31,1,         9P      8
33,1,35,1,37,1;                                                        9P      9
510,135,1,1,39;                                                       11P     10
510,137,1,1,41;                                                       13P     11
510,139,1,1,43;                                                       15P     12
510,141,1,1,45;                                                       17P     13
510,143,1,1,47;                                                       19P     14
510,145,1,1,49;                                                       21P     15
510,147,1,1,51;                                                       23P     16
510,149,1,1,53;                                                       25P     17
510,151,1,1,55;                                                       27P     18
510,153,1,1,57;                                                       29P     19
510,155,1,1,59;                                                       31P     20
510,157,1,1,61;                                                       33P     21
510,159,1,1,63;                                                       35P     22
510,161,1,1,65;                                                       37P     23
508,4,0,165,1,1,0,0,165,2,1,0,0,165,3,1,0,0,165,4,1,0;                39P     24
508,8,0,165,3,0,0,0,165,5,0,0,0,165,6,0,0,0,165,7,1,0,0,165,8,1,      41P     25
0,0,165,9,1,0,0,165,10,0,0,0,165,11,1,0;                              41P     26
508,4,0,165,2,0,0,0,165,12,1,0,0,165,13,0,0,0,165,5,1,0;              43P     27
508,4,0,165,14,1,0,0,165,15,1,0,0,165,16,1,0,0,165,17,1,0;            45P     28
508,4,0,165,17,0,0,0,165,18,1,0,0,165,19,0,0,0,165,20,1,0;            47P     29
508,6,0,165,16,0,0,0,165,21,0,0,0,165,22,0,0,0,165,23,1,0,0,165,      49P     30
24,0,0,0,165,18,0,0;                                                  49P     31
508,6,0,165,1,0,0,0,165,25,1,0,0,165,26,0,0,0,165,27,0,0,0,165,       51P     32
22,1,0,0,165,12,0,0;                                                  51P     33
508,4,0,165,28,1,0,0,165,19,1,0,0,165,24,1,0,0,165,29,1,0;            53P     34
508,4,0,165,10,1,0,0,165,30,1,0,0,165,26,1,0,0,165,31,1,0;            55P     35
508,4,0,165,4,0,0,0,165,11,0,0,0,165,31,0,0,0,165,25,0,0;             57P     36
508,4,0,165,30,0,0,0,165,9,0,0,0,165,32,0,0,0,165,27,1,0;             59P     37
508,5,0,165,29,0,0,0,165,23,0,0,0,165,32,1,0,0,165,8,0,0,0,165,       61P     38
33,1,0;                                                               61P     39
508,6,0,165,14,0,0,0,165,20,0,0,0,165,28,0,0,0,165,33,0,0,0,165,      63P     40
7,0,0,0,165,34,0,0;                                                   63P     41
508,5,0,165,15,0,0,0,165,34,1,0,0,165,6,1,0,0,165,13,1,0,0,165,       65P     42
21,1,0;                                                               65P     43
126,2,2,0,0,0,0,-0.74176493209759,-0.74176493209759,                  67P     44
-0.74176493209759,0.74176493209759,0.74176493209759,                  67P     45
0.74176493209759,1.,0.737277336810127,1.,-5.22917433616972D-15,       67P     46
50.,-35.7489935220523,-5.03763704702853D-15,50.,-33.,                 67P     47
-5.22917433616972D-15,52.738532771757,-32.760409427777,               67P     48
-0.74176493209759,0.74176493209759,0.,0.,0.;                          67P     49
126,1,1,0,0,1,0,-1.82859044879323D-17,-1.82859044879323D-17,1.,       69P     50
1.,1.,1.,0.,52.738532771757,-32.760409427777,-10.,                    69P     51
52.738532771757,-32.760409427777,-1.82859044879323D-17,1.,0.,0.,      69P     52
0.;                                                                   69P     53
126,2,2,0,0,0,0,-0.74176493209759,-0.74176493209759,                  71P     54
-0.74176493209759,0.74176493209759,0.74176493209759,                  71P     55
0.74176493209759,1.,0.737277336810127,1.,-10.,52.738532771757,        71P     56
-32.760409427777,-10.,50.,-33.,-10.,50.,-35.7489935220523,            71P     57
-0.74176493209759,0.74176493209759,0.,0.,0.;                          71P     58
126,1,1,0,0,1,0,-1.,-1.,1.11022302462516D-16,                         73P     59
1.11022302462516D-16,1.,1.,-10.,50.,-35.7489935220523,                73P     60
-6.16297582203915D-31,50.,-35.7489935220523,-1.,                      73P     61
1.11022302462516D-16,0.,0.,0.;                                        73P     62
126,1,1,0,0,1,0,0.0309401412486438,0.0309401412486438,                75P     63
0.759860626586763,0.759860626586763,1.,1.,-10.,60.,                   75P     64
-32.1251133647408,-10.,52.738532771757,-32.760409427777,              75P     65
0.0309401412486438,0.759860626586763,0.,0.,0.;                        75P     66
126,1,1,0,0,1,0,-0.75,-0.75,-0.249999999999999,                       77P     67
-0.249999999999999,1.,1.,-10.,65.,-32.1251133647408,-10.,60.,         77P     68
-32.1251133647408,-0.75,-0.249999999999999,0.,0.,0.;                  77P     69
126,1,1,0,0,1,0,-3.18748866352593,-3.18748866352593,0.,0.,1.,1.,      79P     70
-10.,65.,-32.1251133647408,-10.,65.,-64.,-3.18748866352593,0.,        79P     71
0.,0.,0.;                                                             79P     72
126,1,1,0,0,1,0,-1.5,-1.5,-1.,-1.,1.,1.,-10.,65.,-64.,-10.,60.,       81P     73
-64.,-1.5,-1.,0.,0.,0.;                                               81P     74
126,1,1,0,0,1,0,0.,0.,0.728920485338121,0.728920485338121,1.,1.,      83P     75
-10.,60.,-64.,-10.,52.738532771757,-63.3647039369637,0.,              83P     76
0.728920485338121,0.,0.,0.;                                           83P     77
126,2,2,0,0,0,0,-0.741764932097599,-0.741764932097599,                85P     78
-0.741764932097599,0.741764932097586,0.741764932097586,               85P     79
0.741764932097586,1.,0.737277336810121,1.,-10.,50.,                   85P     80
-60.3761198426885,-10.,50.,-63.1251133647408,-10.,                    85P     81
52.738532771757,-63.3647039369637,-0.741764932097599,                 85P     82
0.741764932097586,0.,0.,0.;                                           85P     83
126,1,1,0,0,1,0,-12.4376119842688,-12.4376119842688,                  87P     84
-9.97489935220523,-9.97489935220523,1.,1.,-10.,50.,                   87P     85
-60.3761198426885,-10.,50.,-35.7489935220523,-12.4376119842688,       87P     86
-9.97489935220523,0.,0.,0.;                                           87P     87
126,1,1,0,0,1,0,-0.759860626586763,-0.759860626586763,                89P     88
-0.030940141248643,-0.030940141248643,1.,1.,0.,52.738532771757,       89P     89
-32.760409427777,0.,60.,-32.1251133647408,-0.759860626586763,         89P     90
-0.030940141248643,0.,0.,0.;                                          89P     91
126,1,1,0,0,1,0,-1.,-1.,1.11022302462516D-16,                         91P     92
1.11022302462516D-16,1.,1.,-10.,59.9999999999999,                     91P     93
-32.1251133647408,-7.39557098644699D-31,59.9999999999999,             91P     94
-32.1251133647408,-1.,1.11022302462516D-16,0.,0.,0.;                  91P     95
126,2,2,0,0,0,0,-0.785398163397449,-0.785398163397449,                93P     96
-0.785398163397449,0.785398163397448,0.785398163397448,               93P     97
0.785398163397448,1.,0.707106781186547,1.,10.,65.,                    93P     98
-40.1251133647408,10.,65.,-32.1251133647408,2.,65.,                   93P     99
-32.1251133647408,-0.785398163397449,0.785398163397448,0.,0.,0.;      93P    100
126,1,1,0,0,1,0,-0.75,-0.75,-0.25,-0.25,1.,1.,2.,65.,                 95P    101
-32.1251133647408,2.,60.,-32.1251133647408,-0.75,-0.25,0.,0.,0.;      95P    102
126,2,2,0,0,0,0,-0.785398163397448,-0.785398163397448,                97P    103
-0.785398163397448,0.785398163397449,0.785398163397449,               97P    104
0.785398163397449,1.,0.707106781186547,1.,2.,60.,                     97P    105
-32.1251133647408,10.,60.,-32.1251133647408,10.,60.,                  97P    106
-40.1251133647408,-0.785398163397448,0.785398163397449,0.,0.,0.;      97P    107
126,1,1,0,0,1,0,0.25,0.25,0.75,0.75,1.,1.,10.,60.,                    99P    108
-40.1251133647408,10.,65.,-40.1251133647408,0.25,0.75,0.,0.,0.;       99P    109
126,1,1,0,0,1,0,7.01251133647408,7.01251133647408,8.6,8.6,1.,1.,     101P    110
10.,60.,-40.1251133647408,10.,60.,-56.,7.01251133647408,8.6,0.,      101P    111
0.,0.;                                                               101P    112
126,1,1,0,0,1,0,-0.625,-0.625,-0.125,-0.125,1.,1.,10.,65.,-56.,      103P    113
10.,60.,-56.,-0.625,-0.125,0.,0.,0.;                                 103P    114
126,1,1,0,0,1,0,0.8,0.8,2.38748866352593,2.38748866352593,1.,1.,     105P    115
10.,65.,-56.,10.,65.,-40.1251133647408,0.8,2.38748866352593,0.,      105P    116
0.,0.;                                                               105P    117
126,1,1,0,0,1,0,9.78906198989494D-16,9.78906198989494D-16,           107P    118
0.200000000000001,0.200000000000001,1.,1.,0.,60.,                    107P    119
-32.1251133647408,2.,60.,-32.1251133647408,9.78906198989494D-16,     107P    120
0.200000000000001,0.,0.,0.;                                          107P    121
126,1,1,0,0,1,0,-9.4,-9.4,-6.21251133647408,-6.21251133647408,       109P    122
1.,1.,0.,60.,-64.,0.,60.,-32.1251133647408,-9.4,                     109P    123
-6.21251133647408,0.,0.,0.;                                          109P    124
126,1,1,0,0,1,0,0.,0.,0.2,0.2,1.,1.,0.,60.,-64.,2.,60.,-64.,0.,      111P    125
0.2,0.,0.,0.;                                                        111P    126
126,2,2,0,0,0,0,5.49778714378214,5.49778714378214,                   113P    127
5.49778714378214,7.06858347057704,7.06858347057704,                  113P    128
7.06858347057704,1.,0.707106781186549,1.,10.,60.,-56.,10.,60.,       113P    129
-64.,2.,60.,-64.,5.49778714378214,7.06858347057704,0.,0.,0.;         113P    130
126,1,1,0,0,1,0,9.97489935220523,9.97489935220523,                   115P    131
12.4376119842688,12.4376119842688,1.,1.,0.,50.,                      115P    132
-35.7489935220523,0.,50.,-60.3761198426885,9.97489935220523,         115P    133
12.4376119842688,0.,0.,0.;                                           115P    134
126,2,2,0,0,0,0,-0.741764932097586,-0.741764932097586,               117P    135
-0.741764932097586,0.741764932097599,0.741764932097599,              117P    136
0.741764932097599,1.,0.737277336810121,1.,0.,52.738532771757,        117P    137
-63.3647039369637,0.,50.,-63.1251133647408,0.,50.,                   117P    138
-60.3761198426885,-0.741764932097586,0.741764932097599,0.,0.,0.;     117P    139
126,1,1,0,0,1,0,0.,0.,0.728920485338121,0.728920485338121,1.,1.,     119P    140
0.,60.,-64.,0.,52.738532771757,-63.3647039369637,0.,                 119P    141
0.728920485338121,0.,0.,0.;                                          119P    142
126,2,2,0,0,0,0,-0.785398163397449,-0.785398163397449,               121P    143
-0.785398163397449,0.785398163397448,0.785398163397448,              121P    144
0.785398163397448,1.,0.707106781186547,1.,2.,65.,-64.,10.,65.,       121P    145
-64.,10.,65.,-56.,-0.785398163397449,0.785398163397448,0.,0.,0.;     121P    146
126,1,1,0,0,1,0,0.125000000000001,0.125000000000001,0.625,0.625,     123P    147
1.,1.,2.,60.,-64.,2.,65.,-64.,0.125000000000001,0.625,0.,0.,0.;      123P    148
126,1,1,0,0,1,0,-1.,-1.,0.,0.,1.,1.,-10.,52.738532771757,            125P    149
-63.3647039369637,0.,52.738532771757,-63.3647039369637,-1.,0.,       125P    150
0.,0.,0.;                                                            125P    151
126,1,1,0,0,1,0,0.,0.,1.,1.,1.,1.,0.,50.,-60.3761198426885,-10.,     127P    152
50.,-60.3761198426885,0.,1.,0.,0.,0.;                                127P    153
126,1,1,0,0,1,0,0.,0.,1.,1.,1.,1.,0.,60.,-64.,-10.,60.,-64.,0.,      129P    154
1.,0.,0.,0.;                                                         129P    155
126,1,1,0,0,1,0,-1.,-1.,0.2,0.2,1.,1.,-10.,65.,-64.,2.,65.,-64.,     131P    156
-1.,0.2,0.,0.,0.;                                                    131P    157
126,1,1,0,0,1,0,-0.2,-0.2,1.,1.,1.,1.,2.,65.,-32.1251133647408,      133P    158
-10.,65.,-32.1251133647408,-0.2,1.,0.,0.,0.;                         133P    159
128,1,2,1,2,0,0,0,0,0,-3.33333333333333,-3.33333333333333,0.,0.,     135P    160
-0.74176493209759,-0.74176493209759,-0.74176493209759,               135P    161
0.741764932097592,0.741764932097592,0.741764932097592,1.,1.,         135P    162
0.737277336810123,0.737277336810123,1.,1.,4.56224294967772D-16,      135P    163
52.738532771757,-32.760409427777,-10.,52.738532771757,               135P    164
-32.760409427777,4.19649436625077D-16,50.,-33.,-10.,50.,-33.,        135P    165
-7.08742219534503D-31,50.,-35.7489935220523,-10.,50.,                135P    166
-35.7489935220523,-3.33333333333333,0.,-0.74176493209759,            135P    167
0.741764932097592;                                                   135P    168
128,1,1,1,1,0,0,1,0,0,-6.40100004768372,-6.40100004768372,           137P    169
-3.21151138415779,-3.21151138415779,-0.751000000000001,              137P    170
-0.751000000000001,0.751,0.751,1.,1.,1.,1.,-10.,49.99,-64.01,        137P    171
-10.,49.99,-32.1151133647408,-10.,65.01,-64.01,-10.,65.01,           137P    172
-32.1151133647408,-6.40100004768372,-3.21151138415779,               137P    173
-0.751000000000001,0.751;                                            137P    174
128,1,1,1,1,0,0,1,0,0,-1.001,-1.001,0.00100000000000056,             139P    175
0.00100000000000056,-0.760860626586764,-0.760860626586764,           139P    176
-0.0299401412486432,-0.0299401412486432,1.,1.,1.,1.,-10.01,          139P    177
52.7285708247761,-32.7612809852045,0.01,52.7285708247761,            139P    178
-32.7612809852045,-10.01,60.0099619469809,-32.1242418073133,         139P    179
0.01,60.0099619469809,-32.1242418073133,-1.001,                      139P    180
0.00100000000000056,-0.760860626586764,-0.0299401412486432;          139P    181
128,1,2,1,2,0,0,0,0,0,0.3125,0.3125,0.9375,0.9375,                   141P    182
-0.785398163397448,-0.785398163397448,-0.785398163397448,            141P    183
0.785398163397449,0.785398163397449,0.785398163397449,1.,1.,         141P    184
0.707106781186548,0.707106781186548,1.,1.,2.,65.,                    141P    185
-32.1251133647408,2.,60.,-32.1251133647408,10.,65.,                  141P    186
-32.1251133647408,10.,60.,-32.1251133647408,10.,65.,                 141P    187
-40.1251133647408,10.,60.,-40.1251133647408,0.3125,0.9375,           141P    188
-0.785398163397448,0.785398163397449;                                141P    189
128,1,1,1,1,0,0,1,0,0,4.01151138415779,4.01151138415779,             143P    190
5.60100004768372,5.60100004768372,0.249,0.249,0.751,0.751,1.,1.,     143P    191
1.,1.,10.,59.99,-40.1151133647408,10.,59.99,-56.01,10.,65.01,        143P    192
-40.1151133647408,10.,65.01,-56.01,4.01151138415779,                 143P    193
5.60100004768372,0.249,0.751;                                        143P    194
128,1,1,1,1,0,0,1,0,0,9.61151143184151,9.61151143184151,             145P    195
12.8010000953674,12.8010000953674,-0.00100000000000001,              145P    196
-0.00100000000000001,1.001,1.001,1.,1.,1.,1.,                        145P    197
-0.0100000000000001,60.,-32.1151133647408,-0.0100000000000001,       145P    198
60.,-64.01,10.01,60.,-32.1151133647408,10.01,60.,-64.01,             145P    199
9.61151143184151,12.8010000953674,-0.00100000000000001,1.001;        145P    200
128,1,1,1,1,0,0,1,0,0,3.21151138415779,3.21151138415779,             147P    201
6.40100004768372,6.40100004768372,-0.751000000000001,                147P    202
-0.751000000000001,0.251000000000001,0.251000000000001,1.,1.,1.,     147P    203
1.,0.,49.99,-32.1151133647408,0.,49.99,-64.01,0.,60.01,              147P    204
-32.1151133647408,0.,60.01,-64.01,3.21151138415779,                  147P    205
6.40100004768372,-0.751000000000001,0.251000000000001;               147P    206
128,1,2,1,2,0,0,0,0,0,0.15625,0.15625,0.78125,0.78125,               149P    207
-0.78539816339745,-0.78539816339745,-0.78539816339745,               149P    208
0.785398163397449,0.785398163397449,0.785398163397449,1.,1.,         149P    209
0.707106781186547,0.707106781186547,1.,1.,10.,65.,-56.,10.,60.,      149P    210
-56.,10.,65.,-64.,10.,60.,-64.,2.,65.,-64.,2.,60.,-64.,0.15625,      149P    211
0.78125,-0.78539816339745,0.785398163397449;                         149P    212
128,1,2,1,2,0,0,0,0,0,0.,0.,3.33333333333333,3.33333333333333,       151P    213
-0.741764932097586,-0.741764932097586,-0.741764932097586,            151P    214
0.741764932097599,0.741764932097599,0.741764932097599,1.,1.,         151P    215
0.737277336810123,0.737277336810123,1.,1.,-10.,52.738532771757,      151P    216
-63.3647039369637,0.,52.738532771757,-63.3647039369637,-10.,50.,     151P    217
-63.1251133647408,0.,50.,-63.1251133647408,-10.,50.,                 151P    218
-60.3761198426885,0.,50.,-60.3761198426885,0.,3.33333333333333,      151P    219
-0.741764932097586,0.741764932097599;                                151P    220
128,1,1,1,1,0,0,1,0,0,0.273899352205227,0.273899352205227,           153P    221
2.73861198426885,2.73861198426885,-0.001,-0.001,1.001,1.001,1.,      153P    222
1.,1.,1.,0.01,50.,-60.3861198426885,0.01,50.,-35.7389935220523,      153P    223
-10.01,50.,-60.3861198426885,-10.01,50.,-35.7389935220523,           153P    224
0.273899352205227,2.73861198426885,-0.001,1.001;                     153P    225
128,1,1,1,1,0,0,1,0,0,-0.001,-0.001,0.729920485338121,               155P    226
0.729920485338121,-0.001,-0.001,1.001,1.001,1.,1.,1.,1.,0.01,        155P    227
60.0099619469809,-64.0008715574275,0.01,52.7285708247761,            155P    228
-63.3638323795363,-10.01,60.0099619469809,-64.0008715574275,         155P    229
-10.01,52.7285708247761,-63.3638323795363,-0.001,                    155P    230
0.729920485338121,-0.001,1.001;                                      155P    231
128,1,1,1,1,0,0,1,0,0,-0.001,-0.001,0.500999999999999,               157P    232
0.500999999999999,-1.001,-1.001,0.201,0.201,1.,1.,1.,1.,-10.01,      157P    233
59.99,-64.,-10.01,65.01,-64.,2.01,59.99,-64.,2.01,65.01,-64.,        157P    234
-0.001,0.500999999999999,-1.001,0.201;                               157P    235
128,1,1,1,1,0,0,1,0,0,-0.001,-0.001,3.18848866352593,                159P    236
3.18848866352593,-1.001,-1.001,1.001,1.001,1.,1.,1.,1.,-10.01,       159P    237
65.,-64.01,-10.01,65.,-32.1151133647408,10.01,65.,-64.01,10.01,      159P    238
65.,-32.1151133647408,-0.001,3.18848866352593,-1.001,1.001;          159P    239
128,1,1,1,1,0,0,1,0,0,-1.001,-1.001,0.201,0.201,                     161P    240
0.248999999999993,0.248999999999993,0.751,0.751,1.,1.,1.,1.,         161P    241
-10.01,59.9899999999999,-32.1251133647408,2.01,59.9899999999999,     161P    242
-32.1251133647408,-10.01,65.01,-32.1251133647408,2.01,65.01,         161P    243
-32.1251133647408,-1.001,0.201,0.248999999999993,0.751;              161P    244
502,22,0.,50.,-35.7489935220523,0.,52.738532771757,                  163P    245
-32.760409427777,-10.,52.738532771757,-32.760409427777,-10.,50.,     163P    246
-35.7489935220523,-10.,60.,-32.1251133647408,-10.,65.,               163P    247
-32.1251133647408,-10.,65.,-64.,-10.,60.,-64.,-10.,                  163P    248
52.738532771757,-63.3647039369637,-10.,50.,-60.3761198426885,0.,     163P    249
60.,-32.1251133647408,10.,65.,-40.1251133647408,2.,65.,              163P    250
-32.1251133647408,2.,60.,-32.1251133647408,10.,60.,                  163P    251
-40.1251133647408,10.,60.,-56.,10.,65.,-56.,0.,60.,-64.,2.,60.,      163P    252
-64.,0.,50.,-60.3761198426885,0.,52.738532771757,                    163P    253
-63.3647039369637,2.,65.,-64.;                                       163P    254
504,34,67,163,1,163,2,69,163,2,163,3,71,163,3,163,4,73,163,4,        165P    255
163,1,75,163,5,163,3,77,163,6,163,5,79,163,6,163,7,81,163,7,163,     165P    256
8,83,163,8,163,9,85,163,10,163,9,87,163,10,163,4,89,163,2,163,       165P    257
11,91,163,5,163,11,93,163,12,163,13,95,163,13,163,14,97,163,14,      165P    258
163,15,99,163,15,163,12,101,163,15,163,16,103,163,17,163,16,105,     165P    259
163,17,163,12,107,163,11,163,14,109,163,18,163,11,111,163,18,        165P    260
163,19,113,163,16,163,19,115,163,1,163,20,117,163,21,163,20,119,     165P    261
163,18,163,21,121,163,22,163,17,123,163,19,163,22,125,163,9,163,     165P    262
21,127,163,20,163,10,129,163,18,163,8,131,163,7,163,22,133,163,      165P    263
13,163,6;                                                            165P    264
406,1,9Hantislide;                                                   167P    265
406,1,12Hanti slide:1;                                               169P    266
314,90.9803921568627,67.843137254902,13.7254901960784,30HPaint -     171P    267
 Enamel Glossy (Yellow);                                             171P    268
314,70.1960784313725,70.1960784313725,70.1960784313725,28HPaint      173P    269
- Enamel Glossy (Grey);                                              173P    270
314,62.7450980392157,62.7450980392157,62.7450980392157,13HSteel      175P    271
- Satin;                                                             175P    272
S      1G      3D    176P    272                                        T      1
