                                                                        S      1
,,29Hstratusholder (v14~recovered),17Hbolster antislide,7Hunknown,7HunknG      1
own,32,38,7,99,15,,1.,2,2HMM,1,0.08,15H20240317.085837,0.01,10000.,7HunkG      2
nown,7Hunknown,11,0,15H20240315.212720;                                 G      3
     408       1                                       3        00000001D      1
     408       0               1       0                               0D      2
     124       2                                                00000000D      3
     124                       4       0                               0D      4
     308       6                                                00010200D      5
     308       0               1       0                               0D      6
     186       7                                                00010000D      7
     186            -249       1       0                               0D      8
     514       8                                                00010000D      9
     514                       2       1                               0D     10
     510      10                                                00010000D     11
     510            -249       1       1                               0D     12
     510      11                                                00010000D     13
     510            -249       1       1                               0D     14
     510      12                                                00010000D     15
     510            -249       1       1                               0D     16
     510      13                                                00010000D     17
     510            -249       1       1                               0D     18
     510      14                                                00010000D     19
     510            -249       1       1                               0D     20
     510      15                                                00010000D     21
     510            -249       1       1                               0D     22
     510      16                                                00010000D     23
     510            -249       1       1                               0D     24
     510      17                                                00010000D     25
     510            -249       1       1                               0D     26
     510      18                                                00010000D     27
     510            -249       1       1                               0D     28
     510      19                                                00010000D     29
     510            -249       1       1                               0D     30
     510      20                                                00010000D     31
     510            -249       1       1                               0D     32
     510      21                                                00010000D     33
     510            -249       1       1                               0D     34
     510      22                                                00010000D     35
     510            -249       1       1                               0D     36
     510      23                                                00010000D     37
     510            -249       1       1                               0D     38
     510      24                                                00010000D     39
     510            -249       1       1                               0D     40
     510      25                                                00010000D     41
     510            -249       1       1                               0D     42
     510      26                                                00010000D     43
     510            -249       1       1                               0D     44
     510      27                                                00010000D     45
     510            -249       1       1                               0D     46
     510      28                                                00010000D     47
     510            -249       1       1                               0D     48
     510      29                                                00010000D     49
     510            -249       1       1                               0D     50
     508      30                                                00010000D     51
     508                       1       1                               0D     52
     508      31                                                00010000D     53
     508                       1       1                               0D     54
     508      32                                                00010000D     55
     508                       2       1                               0D     56
     508      34                                                00010000D     57
     508                       1       1                               0D     58
     508      35                                                00010000D     59
     508                       2       1                               0D     60
     508      37                                                00010000D     61
     508                       2       1                               0D     62
     508      39                                                00010000D     63
     508                       1       1                               0D     64
     508      40                                                00010000D     65
     508                       1       1                               0D     66
     508      41                                                00010000D     67
     508                       3       1                               0D     68
     508      44                                                00010000D     69
     508                       1       1                               0D     70
     508      45                                                00010000D     71
     508                       1       1                               0D     72
     508      46                                                00010000D     73
     508                       1       1                               0D     74
     508      47                                                00010000D     75
     508                       1       1                               0D     76
     508      48                                                00010000D     77
     508                       1       1                               0D     78
     508      49                                                00010000D     79
     508                       1       1                               0D     80
     508      50                                                00010000D     81
     508                       1       1                               0D     82
     508      51                                                00010000D     83
     508                       1       1                               0D     84
     508      52                                                00010000D     85
     508                       1       1                               0D     86
     508      53                                                00010000D     87
     508                       4       1                               0D     88
     508      57                                                00010000D     89
     508                       2       1                               0D     90
     126      59                                                00010000D     91
     126       0               5       0                               0D     92
     126      64                                                00010000D     93
     126       0               4       0                               0D     94
     126      68                                                00010000D     95
     126       0               6       0                               0D     96
     126      74                                                00010000D     97
     126       0               4       0                               0D     98
     126      78                                                00010000D     99
     126       0               4       0                               0D    100
     126      82                                                00010000D    101
     126       0               4       0                               0D    102
     126      86                                                00010000D    103
     126       0               4       0                               0D    104
     126      90                                                00010000D    105
     126       0               2       0                               0D    106
     126      92                                                00010000D    107
     126       0               2       0                               0D    108
     126      94                                                00010000D    109
     126       0               2       0                               0D    110
     126      96                                                00010000D    111
     126       0               5       0                               0D    112
     126     101                                                00010000D    113
     126       0               5       0                               0D    114
     126     106                                                00010000D    115
     126       0               3       0                               0D    116
     126     109                                                00010000D    117
     126       0               2       0                               0D    118
     126     111                                                00010000D    119
     126       0               4       0                               0D    120
     126     115                                                00010000D    121
     126       0               2       0                               0D    122
     126     117                                                00010000D    123
     126       0               3       0                               0D    124
     126     120                                                00010000D    125
     126       0               3       0                               0D    126
     126     123                                                00010000D    127
     126       0               4       0                               0D    128
     126     127                                                00010000D    129
     126       0               5       0                               0D    130
     126     132                                                00010000D    131
     126       0               2       0                               0D    132
     126     134                                                00010000D    133
     126       0               5       0                               0D    134
     126     139                                                00010000D    135
     126       0               3       0                               0D    136
     126     142                                                00010000D    137
     126       0               2       0                               0D    138
     126     144                                                00010000D    139
     126       0               3       0                               0D    140
     126     147                                                00010000D    141
     126       0               3       0                               0D    142
     126     150                                                00010000D    143
     126       0               6       0                               0D    144
     126     156                                                00010000D    145
     126       0               3       0                               0D    146
     126     159                                                00010000D    147
     126       0               4       0                               0D    148
     126     163                                                00010000D    149
     126       0               3       0                               0D    150
     126     166                                                00010000D    151
     126       0               5       0                               0D    152
     126     171                                                00010000D    153
     126       0               3       0                               0D    154
     126     174                                                00010000D    155
     126       0               5       0                               0D    156
     126     179                                                00010000D    157
     126       0               2       0                               0D    158
     126     181                                                00010000D    159
     126       0               4       0                               0D    160
     126     185                                                00010000D    161
     126       0               4       0                               0D    162
     126     189                                                00010000D    163
     126       0               2       0                               0D    164
     126     191                                                00010000D    165
     126       0               2       0                               0D    166
     126     193                                                00010000D    167
     126       0               3       0                               0D    168
     126     196                                                00010000D    169
     126       0               2       0                               0D    170
     126     198                                                00010000D    171
     126       0               4       0                               0D    172
     126     202                                                00010000D    173
     126       0               2       0                               0D    174
     126     204                                                00010000D    175
     126       0               2       0                               0D    176
     126     206                                                00010000D    177
     126       0               2       0                               0D    178
     126     208                                                00010000D    179
     126       0               2       0                               0D    180
     126     210                                                00010000D    181
     126       0               4       0                               0D    182
     126     214                                                00010000D    183
     126       0               2       0                               0D    184
     126     216                                                00010000D    185
     126       0               2       0                               0D    186
     126     218                                                00010000D    187
     126       0               3       0                               0D    188
     126     221                                                00010000D    189
     126       0               4       0                               0D    190
     126     225                                                00010000D    191
     126       0               3       0                               0D    192
     126     228                                                00010000D    193
     126       0               5       0                               0D    194
     126     233                                                00010000D    195
     126       0               2       0                               0D    196
     126     235                                                00010000D    197
     126       0               4       0                               0D    198
     128     239                                                00010000D    199
     128       0    -249       9       0                               0D    200
     128     248                                                00010000D    201
     128       0    -249       6       0                               0D    202
     128     254                                                00010000D    203
     128       0    -249       3       0                               0D    204
     128     257                                                00010000D    205
     128       0    -249       9       0                               0D    206
     128     266                                                00010000D    207
     128       0    -249       5       0                               0D    208
     128     271                                                00010000D    209
     128       0    -249       6       0                               0D    210
     128     277                                                00010000D    211
     128       0    -249       8       0                               0D    212
     128     285                                                00010000D    213
     128       0    -249       4       0                               0D    214
     128     289                                                00010000D    215
     128       0    -249       4       0                               0D    216
     128     293                                                00010000D    217
     128       0    -249       6       0                               0D    218
     128     299                                                00010000D    219
     128       0    -249       3       0                               0D    220
     128     302                                                00010000D    221
     128       0    -249       6       0                               0D    222
     128     308                                                00010000D    223
     128       0    -249       4       0                               0D    224
     128     312                                                00010000D    225
     128       0    -249       6       0                               0D    226
     128     318                                                00010000D    227
     128       0    -249       5       0                               0D    228
     128     323                                                00010000D    229
     128       0    -249       6       0                               0D    230
     128     329                                                00010000D    231
     128       0    -249       8       0                               0D    232
     128     337                                                00010000D    233
     128       0    -249       4       0                               0D    234
     128     341                                                00010000D    235
     128       0    -249       7       0                               0D    236
     128     348                                                00010000D    237
     128       0    -249       6       0                               0D    238
     502     354                                                00010000D    239
     502                      13       1                               0D    240
     504     367                                                00010001D    241
     504                      16       1                               0D    242
     406     383                                                00000000D    243
     406                       1      15                               0D    244
     406     384                                                00000000D    245
     406                       1      15                               0D    246
     314     385                                                00000200D    247
     314                       2       0                               0D    248
     314     387                                                00000200D    249
     314                       2       0                               0D    250
     314     389                                                00000200D    251
     314                       2       0                               0D    252
408,5,0.,0.,0.,1.,0,1,245;                                             1P      1
124,1.,-5.59184738611533D-33,-1.04083408558608D-15,                    3P      2
-41.4541409627496,2.87490229460037D-32,0.999999999999998,              3P      3
7.8886090522101D-31,106.286598466159,1.04083408558608D-15,             3P      4
3.44556583370374D-46,1.,1.73826768736647D-13;                          3P      5
308,0,10Hanti slide,1,7;                                               5P      6
186,9,1,0,0,1,243;                                                     7P      7
514,20,11,1,13,1,15,1,17,1,19,1,21,1,23,1,25,1,27,1,29,1,31,1,         9P      8
33,1,35,1,37,1,39,1,41,1,43,1,45,1,47,1,49,1;                          9P      9
510,199,1,1,51;                                                       11P     10
510,201,1,1,53;                                                       13P     11
510,203,1,1,55;                                                       15P     12
510,205,1,1,57;                                                       17P     13
510,207,1,1,59;                                                       19P     14
510,209,1,1,61;                                                       21P     15
510,211,1,1,63;                                                       23P     16
510,213,1,1,65;                                                       25P     17
510,215,1,1,67;                                                       27P     18
510,217,1,1,69;                                                       29P     19
510,219,1,1,71;                                                       31P     20
510,221,1,1,73;                                                       33P     21
510,223,1,1,75;                                                       35P     22
510,225,1,1,77;                                                       37P     23
510,227,1,1,79;                                                       39P     24
510,229,1,1,81;                                                       41P     25
510,231,1,1,83;                                                       43P     26
510,233,1,1,85;                                                       45P     27
510,235,1,1,87;                                                       47P     28
510,237,1,1,89;                                                       49P     29
508,4,0,241,1,1,0,0,241,2,1,0,0,241,3,1,0,0,241,4,1,0;                51P     30
508,4,0,241,2,0,0,0,241,5,1,0,0,241,6,0,0,0,241,7,1,0;                53P     31
508,6,0,241,1,0,0,0,241,8,0,0,0,241,9,0,0,0,241,10,1,0,0,241,11,      55P     32
0,0,0,241,5,0,0;                                                      55P     33
508,4,0,241,12,1,0,0,241,6,1,0,0,241,11,1,0,0,241,13,1,0;             57P     34
508,6,0,241,3,0,0,0,241,7,0,0,0,241,12,0,0,0,241,14,0,0,0,241,        59P     35
15,0,0,0,241,16,1,0;                                                  59P     36
508,6,0,241,13,0,0,0,241,10,0,0,0,241,17,0,0,0,241,18,0,0,0,241,      61P     37
19,0,0,0,241,14,1,0;                                                  61P     38
508,4,0,241,20,1,0,0,241,21,1,0,0,241,22,1,0,0,241,18,1,0;            63P     39
508,4,0,241,21,0,0,0,241,23,0,0,0,241,24,0,0,0,241,25,0,0;            65P     40
508,14,0,241,20,0,0,0,241,17,1,0,0,241,9,1,0,0,241,26,1,0,0,241,      67P     41
27,0,0,0,241,28,1,0,0,241,29,0,0,0,241,30,1,0,0,241,31,0,0,0,         67P     42
241,32,1,0,0,241,33,0,0,0,241,34,1,0,0,241,35,0,0,0,241,23,1,0;       67P     43
508,4,0,241,36,1,0,0,241,37,1,0,0,241,31,1,0,0,241,38,1,0;            69P     44
508,4,0,241,37,0,0,0,241,39,1,0,0,241,40,0,0,0,241,32,0,0;            71P     45
508,4,0,241,41,1,0,0,241,42,1,0,0,241,33,1,0,0,241,40,1,0;            73P     46
508,4,0,241,42,0,0,0,241,43,1,0,0,241,44,0,0,0,241,34,0,0;            75P     47
508,4,0,241,29,1,0,0,241,45,1,0,0,241,46,1,0,0,241,47,1,0;            77P     48
508,4,0,241,45,0,0,0,241,28,0,0,0,241,48,0,0,0,241,49,0,0;            79P     49
508,4,0,241,35,1,0,0,241,44,1,0,0,241,50,1,0,0,241,24,1,0;            81P     50
508,4,0,241,27,1,0,0,241,51,1,0,0,241,52,1,0,0,241,48,1,0;            83P     51
508,4,0,241,38,0,0,0,241,30,0,0,0,241,47,0,0,0,241,53,0,0;            85P     52
508,14,0,241,22,0,0,0,241,25,1,0,0,241,50,0,0,0,241,43,0,0,0,         87P     53
241,41,0,0,0,241,39,0,0,0,241,36,0,0,0,241,53,1,0,0,241,46,0,0,       87P     54
0,241,49,1,0,0,241,52,0,0,0,241,54,0,0,0,241,15,1,0,0,241,19,1,       87P     55
0;                                                                    87P     56
508,6,0,241,4,0,0,0,241,16,0,0,0,241,54,1,0,0,241,51,0,0,0,241,       89P     57
26,0,0,0,241,8,1,0;                                                   89P     58
126,2,2,0,0,0,0,2.86807614694832D-15,2.86807614694832D-15,            91P     59
2.86807614694832D-15,1.5707963267949,1.5707963267949,                 91P     60
1.5707963267949,1.,0.707106781186543,1.,7.,65.,-64.,10.,65.,          91P     61
-64.,10.,65.,-60.9537201643428,2.86807614694832D-15,                  91P     62
1.5707963267949,0.,0.,0.;                                             91P     63
126,1,1,0,0,1,0,-0.879733696419609,-0.879733696419609,                93P     64
-0.372020390476738,-0.372020390476738,1.,1.,10.,65.,                  93P     65
-60.9537201643428,10.,60.,-60.0720852608004,-0.879733696419609,       93P     66
-0.372020390476738,0.,0.,0.;                                          93P     67
126,2,2,0,0,0,0,-1.5707963267949,-1.5707963267949,                    95P     68
-1.5707963267949,-2.86807614694832D-15,-2.86807614694832D-15,         95P     69
-2.86807614694832D-15,1.,0.707106781186546,1.,10.,60.,                95P     70
-60.0720852608004,10.,60.,-63.1183650964577,7.,60.,                   95P     71
-63.1183650964577,-1.5707963267949,-2.86807614694832D-15,0.,0.,       95P     72
0.;                                                                   95P     73
126,1,1,0,0,1,0,0.424918484689277,0.424918484689277,                  97P     74
0.932631790632149,0.932631790632149,1.,1.,7.,60.,                     97P     75
-63.1183650964577,7.,65.,-64.,0.424918484689277,                      97P     76
0.932631790632149,0.,0.,0.;                                           97P     77
126,1,1,0,0,1,0,0.304627983565724,0.304627983565724,                  99P     78
12.4953720164343,12.4953720164343,1.,1.,10.,65.,                      99P     79
-60.9537201643428,10.,65.,60.9537201643428,0.304627983565724,         99P     80
12.4953720164343,0.,0.,0.;                                            99P     81
126,1,1,0,0,1,0,0.118163737505301,0.118163737505301,                 101P     82
0.625877043448174,0.625877043448174,1.,1.,10.,60.,                   101P     83
60.0720852608004,10.,65.,60.9537201643428,0.118163737505301,         101P     84
0.625877043448174,0.,0.,0.;                                          101P     85
126,1,1,0,0,1,0,-3.00720852608004,-3.00720852608004,                 103P     86
9.00720852608004,9.00720852608004,1.,1.,10.,60.,                     103P     87
60.0720852608004,10.,60.,-60.0720852608004,-3.00720852608004,        103P     88
9.00720852608004,0.,0.,0.;                                           103P     89
126,1,1,0,0,1,0,-1.,-1.,0.7,0.7,1.,1.,-10.,65.,-64.,7.,65.,-64.,     105P     90
-1.,0.7,0.,0.,0.;                                                    105P     91
126,1,1,0,0,1,0,-12.8,-12.8,0.,0.,1.,1.,-10.,65.,64.,-10.,65.,       107P     92
-64.,-12.8,0.,0.,0.,0.;                                              107P     93
126,1,1,0,0,1,0,-1.,-1.,0.7,0.7,1.,1.,-10.,65.,64.,7.,65.,64.,       109P     94
-1.,0.7,0.,0.,0.;                                                    109P     95
126,2,2,0,0,0,0,-1.57079632679489,-1.57079632679489,                 111P     96
-1.57079632679489,2.59052039079203D-15,2.59052039079203D-15,         111P     97
2.59052039079203D-15,1.,0.707106781186551,1.,10.,65.,                111P     98
60.9537201643428,9.99999999999999,65.,64.,7.,65.,64.,                111P     99
-1.57079632679489,2.59052039079203D-15,0.,0.,0.;                     111P    100
126,2,2,0,0,0,0,2.31296463463574D-15,2.31296463463574D-15,           113P    101
2.31296463463574D-15,1.5707963267949,1.5707963267949,                113P    102
1.5707963267949,1.,0.707106781186543,1.,7.,60.,63.1183650964577,     113P    103
10.,60.,63.1183650964577,10.,60.,60.0720852608004,                   113P    104
2.31296463463574D-15,1.5707963267949,0.,0.,0.;                       113P    105
126,1,1,0,0,1,0,-0.678775137660715,-0.678775137660715,               115P    106
-0.171061831717842,-0.171061831717842,1.,1.,7.,65.,64.,7.,60.,       115P    107
63.1183650964577,-0.678775137660715,-0.171061831717842,0.,0.,0.;     115P    108
126,1,1,0,0,1,0,0.,0.,0.7,0.7,1.,1.,0.,60.,63.1183650964577,7.,      117P    109
60.,63.1183650964577,0.,0.7,0.,0.,0.;                                117P    110
126,1,1,0,0,1,0,-9.31183650964577,-9.31183650964577,                 119P    111
3.31183650964577,3.31183650964577,1.,1.,0.,60.,                      119P    112
-63.1183650964577,0.,60.,63.1183650964577,-9.31183650964577,         119P    113
3.31183650964577,0.,0.,0.;                                           119P    114
126,1,1,0,0,1,0,0.,0.,0.7,0.7,1.,1.,0.,60.,-63.1183650964577,7.,     121P    115
60.,-63.1183650964577,0.,0.7,0.,0.,0.;                               121P    116
126,1,1,0,0,1,0,-1.27141002847543,-1.27141002847543,0.,0.,1.,1.,     123P    117
-10.,52.4790554669992,61.7922196548778,-10.,65.,64.,                 123P    118
-1.27141002847543,0.,0.,0.,0.;                                       123P    119
126,1,1,0,0,1,0,0.,0.,1.,1.,1.,1.,0.,52.4790554669992,               125P    120
61.7922196548778,-10.,52.4790554669992,61.7922196548778,0.,1.,       125P    121
0.,0.,0.;                                                            125P    122
126,1,1,0,0,1,0,0.507713305942873,0.507713305942873,                 127P    123
1.27141002847543,1.27141002847543,1.,1.,0.,60.,63.1183650964577,     127P    124
0.,52.4790554669992,61.7922196548778,0.507713305942873,              127P    125
1.27141002847543,0.,0.,0.;                                           127P    126
126,2,2,0,0,0,0,-0.698131700797732,-0.698131700797732,               129P    127
-0.698131700797732,0.698131700797726,0.698131700797726,              129P    128
0.698131700797726,1.,0.766044443118986,1.,-10.,52.4790554669992,     129P    129
61.7922196548778,-10.,50.,61.355095289373,-10.,50.,                  129P    130
58.8377963958412,-0.698131700797732,0.698131700797726,0.,0.,0.;      129P    131
126,1,1,0,0,1,0,-1.,-1.,0.,0.,1.,1.,-10.,50.,58.8377963958412,       131P    132
0.,50.,58.8377963958412,-1.,0.,0.,0.,0.;                             131P    133
126,2,2,0,0,0,0,-0.698131700797726,-0.698131700797726,               133P    134
-0.698131700797726,0.698131700797732,0.698131700797732,              133P    135
0.698131700797732,1.,0.766044443118986,1.,0.,50.,                    133P    136
58.8377963958412,0.,50.,61.355095289373,0.,52.4790554669992,         133P    137
61.7922196548778,-0.698131700797726,0.698131700797732,0.,0.,0.;      133P    138
126,1,1,0,0,1,0,-3.1,-3.1,-0.516220360415883,-0.516220360415883,     135P    139
1.,1.,-10.,50.,33.,-10.,50.,58.8377963958412,-3.1,                   135P    140
-0.516220360415883,0.,0.,0.;                                         135P    141
126,1,1,0,0,1,0,0.,0.,1.,1.,1.,1.,0.,50.,33.,-10.,50.,33.,0.,1.,     137P    142
0.,0.,0.;                                                            137P    143
126,1,1,0,0,1,0,0.516220360415883,0.516220360415883,3.1,3.1,1.,      139P    144
1.,0.,50.,58.8377963958412,0.,50.,33.,0.516220360415883,3.1,0.,      139P    145
0.,0.;                                                               139P    146
126,1,1,0,0,1,0,0.,0.,1.27141002847544,1.27141002847544,1.,1.,       141P    147
-10.,65.,-64.,-10.,52.4790554669992,-61.7922196548778,0.,            141P    148
1.27141002847544,0.,0.,0.;                                           141P    149
126,2,2,0,0,0,0,-0.698131700797735,-0.698131700797735,               143P    150
-0.698131700797735,0.69813170079773,0.69813170079773,                143P    151
0.69813170079773,1.,0.766044443118982,1.,-10.,50.,                   143P    152
-58.8377963958412,-10.,50.,-61.355095289373,-10.,                    143P    153
52.4790554669992,-61.7922196548778,-0.698131700797735,               143P    154
0.69813170079773,0.,0.,0.;                                           143P    155
126,1,1,0,0,1,0,-12.2837796395841,-12.2837796395841,-9.7,-9.7,       145P    156
1.,1.,-10.,50.,-58.8377963958412,-10.,50.,-33.,                      145P    157
-12.2837796395841,-9.7,0.,0.,0.;                                     145P    158
126,2,2,0,0,0,0,-0.78539816339745,-0.78539816339745,                 147P    159
-0.78539816339745,0.78539816339745,0.78539816339745,                 147P    160
0.78539816339745,1.,0.707106781186549,1.,-10.,53.,-30.,-10.,50.,     147P    161
-30.,-10.,50.,-33.,-0.78539816339745,0.78539816339745,0.,0.,0.;      147P    162
126,1,1,0,0,1,0,-0.699999999999999,-0.699999999999999,-0.55,         149P    163
-0.55,1.,1.,-10.,53.,-30.,-10.,54.5,-30.,-0.699999999999999,         149P    164
-0.55,0.,0.,0.;                                                      149P    165
126,2,2,0,0,0,0,-0.78539816339745,-0.78539816339745,                 151P    166
-0.78539816339745,0.785398163397447,0.785398163397447,               151P    167
0.785398163397447,1.,0.707106781186555,1.,-10.,57.5,-27.,-10.,       151P    168
57.5,-30.,-10.,54.5,-30.,-0.78539816339745,0.785398163397447,0.,     151P    169
0.,0.;                                                               151P    170
126,1,1,0,0,1,0,0.100000041723251,0.100000041723251,                 153P    171
5.50000004172325,5.50000004172325,1.,1.,-10.,57.5,-27.,-10.,         153P    172
57.5,27.,0.100000041723251,5.50000004172325,0.,0.,0.;                153P    173
126,2,2,0,0,0,0,-0.785398163397448,-0.785398163397448,               155P    174
-0.785398163397448,0.785398163397448,0.785398163397448,              155P    175
0.785398163397448,1.,0.707106781186552,1.,-10.,54.5,30.,-10.,        155P    176
57.5,30.,-10.,57.5,27.,-0.785398163397448,0.785398163397448,0.,      155P    177
0.,0.;                                                               155P    178
126,1,1,0,0,1,0,0.550000000000001,0.550000000000001,0.7,0.7,1.,      157P    179
1.,-10.,54.5,30.,-10.,53.,30.,0.550000000000001,0.7,0.,0.,0.;        157P    180
126,2,2,0,0,0,0,-0.78539816339745,-0.78539816339745,                 159P    181
-0.78539816339745,0.785398163397447,0.785398163397447,               159P    182
0.785398163397447,1.,0.707106781186555,1.,-10.,50.,33.,-10.,50.,     159P    183
30.,-10.,53.,30.,-0.78539816339745,0.785398163397447,0.,0.,0.;       159P    184
126,2,2,0,0,0,0,-0.785398163397447,-0.785398163397447,               161P    185
-0.785398163397447,0.78539816339745,0.78539816339745,                161P    186
0.78539816339745,1.,0.707106781186555,1.,0.,54.5,-30.,0.,57.5,       161P    187
-30.,0.,57.5,-27.,-0.785398163397447,0.78539816339745,0.,0.,0.;      161P    188
126,1,1,0,0,1,0,0.,0.,1.,1.,1.,1.,0.,57.5,-27.,-10.,57.5,-27.,       163P    189
0.,1.,0.,0.,0.;                                                      163P    190
126,1,1,0,0,1,0,-1.,-1.,0.,0.,1.,1.,-10.,54.5,-30.,0.,54.5,-30.,     165P    191
-1.,0.,0.,0.,0.;                                                     165P    192
126,1,1,0,0,1,0,0.100000041723251,0.100000041723251,                 167P    193
5.50000004172325,5.50000004172325,1.,1.,0.,57.5,-27.,0.,57.5,        167P    194
27.,0.100000041723251,5.50000004172325,0.,0.,0.;                     167P    195
126,1,1,0,0,1,0,-1.,-1.,0.,0.,1.,1.,-10.,57.5,27.,0.,57.5,27.,       169P    196
-1.,0.,0.,0.,0.;                                                     169P    197
126,2,2,0,0,0,0,-0.785398163397448,-0.785398163397448,               171P    198
-0.785398163397448,0.785398163397448,0.785398163397448,              171P    199
0.785398163397448,1.,0.707106781186552,1.,0.,57.5,27.,0.,57.5,       171P    200
30.,0.,54.5,30.,-0.785398163397448,0.785398163397448,0.,0.,0.;       171P    201
126,1,1,0,0,1,0,0.,0.,1.,1.,1.,1.,0.,54.5,30.,-10.,54.5,30.,0.,      173P    202
1.,0.,0.,0.;                                                         173P    203
126,1,1,0,0,1,0,0.550000000000001,0.550000000000001,0.7,0.7,1.,      175P    204
1.,0.,54.5,30.,0.,53.,30.,0.550000000000001,0.7,0.,0.,0.;            175P    205
126,1,1,0,0,1,0,-1.,-1.,0.,0.,1.,1.,-10.,53.,30.,0.,53.,30.,-1.,     177P    206
0.,0.,0.,0.;                                                         177P    207
126,1,1,0,0,1,0,-1.,-1.,0.,0.,1.,1.,-10.,50.,-33.,0.,50.,-33.,       179P    208
-1.,0.,0.,0.,0.;                                                     179P    209
126,2,2,0,0,0,0,-0.78539816339745,-0.78539816339745,                 181P    210
-0.78539816339745,0.78539816339745,0.78539816339745,                 181P    211
0.78539816339745,1.,0.707106781186549,1.,0.,50.,-33.,0.,50.,         181P    212
-30.,0.,53.,-30.,-0.78539816339745,0.78539816339745,0.,0.,0.;        181P    213
126,1,1,0,0,1,0,0.,0.,1.,1.,1.,1.,0.,53.,-30.,-10.,53.,-30.,0.,      183P    214
1.,0.,0.,0.;                                                         183P    215
126,1,1,0,0,1,0,0.,0.,1.,1.,1.,1.,0.,50.,-58.8377963958412,-10.,     185P    216
50.,-58.8377963958412,0.,1.,0.,0.,0.;                                185P    217
126,1,1,0,0,1,0,9.7,9.7,12.2837796395841,12.2837796395841,1.,1.,     187P    218
0.,50.,-33.,0.,50.,-58.8377963958412,9.7,12.2837796395841,0.,0.,     187P    219
0.;                                                                  187P    220
126,2,2,0,0,0,0,-0.785398163397447,-0.785398163397447,               189P    221
-0.785398163397447,0.78539816339745,0.78539816339745,                189P    222
0.78539816339745,1.,0.707106781186555,1.,0.,53.,30.,0.,50.,30.,      189P    223
0.,50.,33.,-0.785398163397447,0.78539816339745,0.,0.,0.;             189P    224
126,1,1,0,0,1,0,-1.,-1.,0.,0.,1.,1.,-10.,52.4790554669992,           191P    225
-61.7922196548778,0.,52.4790554669992,-61.7922196548778,-1.,0.,      191P    226
0.,0.,0.;                                                            191P    227
126,2,2,0,0,0,0,-0.69813170079773,-0.69813170079773,                 193P    228
-0.69813170079773,0.698131700797735,0.698131700797735,               193P    229
0.698131700797735,1.,0.766044443118982,1.,0.,52.4790554669992,       193P    230
-61.7922196548778,0.,50.,-61.355095289373,0.,50.,                    193P    231
-58.8377963958412,-0.69813170079773,0.698131700797735,0.,0.,0.;      193P    232
126,1,1,0,0,1,0,0.55,0.55,0.699999999999999,0.699999999999999,       195P    233
1.,1.,0.,54.5,-30.,0.,53.,-30.,0.55,0.699999999999999,0.,0.,0.;      195P    234
126,1,1,0,0,1,0,0.507713305942872,0.507713305942872,                 197P    235
1.27141002847544,1.27141002847544,1.,1.,0.,60.,                      197P    236
-63.1183650964577,0.,52.4790554669992,-61.7922196548778,             197P    237
0.507713305942872,1.27141002847544,0.,0.,0.;                         197P    238
128,1,2,1,2,0,0,0,0,0,1.24006796825579,1.24006796825579,             199P    239
3.1087726354405,3.1087726354405,-0.78539816339745,                   199P    240
-0.78539816339745,-0.78539816339745,0.785398163397454,               199P    241
0.785398163397454,0.785398163397454,1.,1.,0.707106781186545,         199P    242
0.707106781186545,1.,1.,10.,65.5209445330008,-61.0455767409634,      199P    243
10.,60.,-60.0720852608004,10.,65.,-64.,10.,59.4790554669992,         199P    244
-63.0265085198371,6.99999999999999,65.,-64.,6.99999999999999,        199P    245
59.4790554669992,-63.0265085198371,1.24006796825579,                 199P    246
3.1087726354405,-0.78539816339745,0.785398163397454;                 199P    247
128,1,1,1,1,0,0,1,0,0,-6.09637201643428,-6.09637201643428,           201P    248
6.09637201643428,6.09637201643428,-0.251000000000001,                201P    249
-0.251000000000001,0.251,0.251,1.,1.,1.,1.,10.,59.99,                201P    250
60.9637201643428,10.,59.99,-60.9637201643428,10.,65.01,              201P    251
60.9637201643428,10.,65.01,-60.9637201643428,-6.09637201643428,      201P    252
6.09637201643428,-0.251000000000001,0.251;                           201P    253
128,1,1,1,1,0,0,1,0,0,-0.001,-0.001,12.801,12.801,-1.001,-1.001,     203P    254
1.001,1.001,1.,1.,1.,1.,-10.01,65.,-64.01,-10.01,65.,64.01,          203P    255
10.01,65.,-64.01,10.01,65.,64.01,-0.001,12.801,-1.001,1.001;         203P    256
128,1,2,1,2,0,0,0,0,0,-2.26258379220238,-2.26258379220238,           205P    257
-0.393879125017671,-0.393879125017671,-0.785398163397446,            205P    258
-0.785398163397446,-0.785398163397446,0.78539816339745,              205P    259
0.78539816339745,0.78539816339745,1.,1.,0.707106781186548,           205P    260
0.707106781186548,1.,1.,10.,60.,60.0720852608004,10.,                205P    261
65.5209445330008,61.0455767409634,10.,59.4790554669992,              205P    262
63.0265085198371,10.,65.,64.,7.,59.4790554669992,                    205P    263
63.0265085198371,7.,65.,64.,-2.26258379220238,                       205P    264
-0.393879125017671,-0.785398163397446,0.78539816339745;              205P    265
128,1,1,1,1,0,0,1,0,0,-0.00100000000000178,-0.00100000000000178,     207P    266
12.6246730192915,12.6246730192915,-0.001,-0.001,1.001,1.001,1.,      207P    267
1.,1.,1.,-0.01,60.,63.1283650964577,-0.01,60.,-63.1283650964577,     207P    268
10.01,60.,63.1283650964577,10.01,60.,-63.1283650964577,              207P    269
-0.00100000000000178,12.6246730192915,-0.001,1.001;                  207P    270
128,1,1,1,1,0,0,1,0,0,-0.001,-0.001,1.27241002847544,                209P    271
1.27241002847544,-1.001,-1.001,0.701,0.701,1.,1.,1.,1.,-10.01,       209P    272
65.0098480775301,64.0017364817767,-10.01,52.4692073894691,           209P    273
61.7904831731011,7.01,65.0098480775301,64.0017364817767,7.01,        209P    274
52.4692073894691,61.7904831731011,-0.001,1.27241002847544,           209P    275
-1.001,0.701;                                                        209P    276
128,1,2,1,2,0,0,0,0,0,0.,0.,3.33333333333333,3.33333333333333,       211P    277
-0.698131700797727,-0.698131700797727,-0.698131700797727,            211P    278
0.698131700797733,0.698131700797733,0.698131700797733,1.,1.,         211P    279
0.766044443118979,0.766044443118979,1.,1.,-10.,50.,                  211P    280
58.8377963958412,0.,50.,58.8377963958412,-10.,50.,                   211P    281
61.355095289373,0.,50.,61.355095289373,-10.,52.4790554669992,        211P    282
61.7922196548778,0.,52.4790554669992,61.7922196548778,0.,            211P    283
3.33333333333333,-0.698131700797727,0.698131700797733;               211P    284
128,1,1,1,1,0,0,1,0,0,0.299,0.299,2.88477963958412,                  213P    285
2.88477963958412,-0.001,-0.001,1.001,1.001,1.,1.,1.,1.,0.01,50.,     213P    286
32.99,0.01,50.,58.8477963958412,-10.01,50.,32.99,-10.01,50.,         213P    287
58.8477963958412,0.299,2.88477963958412,-0.001,1.001;                213P    288
128,1,1,1,1,0,0,1,0,0,-6.401,-6.401,6.401,6.401,                     215P    289
-0.751000000000001,-0.751000000000001,0.751,0.751,1.,1.,1.,1.,       215P    290
-10.,49.99,-64.01,-10.,49.99,64.01,-10.,65.01,-64.01,-10.,65.01,     215P    291
64.01,-6.401,6.401,-0.751000000000001,0.751;                         215P    292
128,1,2,1,2,0,0,0,0,0,0.,0.,3.33333333333333,3.33333333333333,       217P    293
-0.78539816339745,-0.78539816339745,-0.78539816339745,               217P    294
0.785398163397447,0.785398163397447,0.785398163397447,1.,1.,         217P    295
0.707106781186548,0.707106781186548,1.,1.,0.,57.5,-27.,-10.,         217P    296
57.5,-27.,0.,57.5,-30.,-10.,57.5,-30.,0.,54.5,-30.,-10.,54.5,        217P    297
-30.,0.,3.33333333333333,-0.78539816339745,0.785398163397447;        217P    298
128,1,1,1,1,0,0,1,0,0,0.299,0.299,5.701,5.701,-0.001,-0.001,         219P    299
1.001,1.001,1.,1.,1.,1.,0.01,57.5,-27.01,0.01,57.5,27.01,-10.01,     219P    300
57.5,-27.01,-10.01,57.5,27.01,0.299,5.701,-0.001,1.001;              219P    301
128,1,2,1,2,0,0,0,0,0,0.,0.,3.33333333333333,3.33333333333333,       221P    302
-0.785398163397448,-0.785398163397448,-0.785398163397448,            221P    303
0.785398163397448,0.785398163397448,0.785398163397448,1.,1.,         221P    304
0.707106781186548,0.707106781186548,1.,1.,0.,54.5,30.,-10.,54.5,     221P    305
30.,0.,57.5,30.,-10.,57.5,30.,0.,57.5,27.,-10.,57.5,27.,0.,          221P    306
3.33333333333333,-0.785398163397448,0.785398163397448;               221P    307
128,1,1,1,1,0,0,1,0,0,0.299,0.299,0.450999999999999,                 223P    308
0.450999999999999,-0.001,-0.001,1.001,1.001,1.,1.,1.,1.,0.01,        223P    309
54.51,30.,0.01,52.99,30.,-10.01,54.51,30.,-10.01,52.99,30.,          223P    310
0.299,0.450999999999999,-0.001,1.001;                                223P    311
128,1,2,1,2,0,0,0,0,0,0.,0.,3.33333333333333,3.33333333333333,       225P    312
-0.78539816339745,-0.78539816339745,-0.78539816339745,               225P    313
0.78539816339745,0.78539816339745,0.78539816339745,1.,1.,            225P    314
0.707106781186546,0.707106781186546,1.,1.,-10.,50.,-33.,0.,50.,      225P    315
-33.,-10.,50.,-30.,0.,50.,-30.,-10.,53.,-30.,0.,53.,-30.,0.,         225P    316
3.33333333333333,-0.78539816339745,0.78539816339745;                 225P    317
128,1,1,1,1,0,0,1,0,0,0.250729889353183,0.250729889353183,           227P    318
2.8365095289373,2.8365095289373,-0.001,-0.001,1.001,1.001,1.,1.,     227P    319
1.,1.,0.01,50.,-58.8477963958412,0.01,50.,-32.99,-10.01,50.,         227P    320
-58.8477963958412,-10.01,50.,-32.99,0.250729889353183,               227P    321
2.8365095289373,-0.001,1.001;                                        227P    322
128,1,2,1,2,0,0,0,0,0,0.,0.,3.33333333333333,3.33333333333333,       229P    323
-0.785398163397447,-0.785398163397447,-0.785398163397447,            229P    324
0.78539816339745,0.78539816339745,0.78539816339745,1.,1.,            229P    325
0.707106781186548,0.707106781186548,1.,1.,-10.,53.,30.,0.,53.,       229P    326
30.,-10.,50.,30.,0.,50.,30.,-10.,50.,33.,0.,50.,33.,0.,              229P    327
3.33333333333333,-0.785398163397447,0.78539816339745;                229P    328
128,1,2,1,2,0,0,0,0,0,0.,0.,3.33333333333333,3.33333333333333,       231P    329
-0.69813170079773,-0.69813170079773,-0.69813170079773,               231P    330
0.698131700797735,0.698131700797735,0.698131700797735,1.,1.,         231P    331
0.766044443118977,0.766044443118977,1.,1.,-10.,52.4790554669992,     231P    332
-61.7922196548778,0.,52.4790554669992,-61.7922196548778,-10.,        231P    333
50.,-61.355095289373,0.,50.,-61.355095289373,-10.,50.,               231P    334
-58.8377963958412,0.,50.,-58.8377963958412,0.,3.33333333333333,      231P    335
-0.69813170079773,0.698131700797735;                                 231P    336
128,1,1,1,1,0,0,1,0,0,0.299000000000001,0.299000000000001,0.451,     233P    337
0.451,-0.001,-0.001,1.001,1.001,1.,1.,1.,1.,0.01,52.99,-30.,         233P    338
0.01,54.51,-30.,-10.01,52.99,-30.,-10.01,54.51,-30.,                 233P    339
0.299000000000001,0.451,-0.001,1.001;                                233P    340
128,1,1,1,1,0,0,1,0,0,-6.31283650964577,-6.31283650964577,           235P    341
6.31283650964577,6.31283650964577,-0.751000000000001,                235P    342
-0.751000000000001,0.251000000000003,0.251000000000003,1.,1.,1.,     235P    343
1.,0.,49.99,63.1283650964577,0.,49.99,-63.1283650964577,0.,          235P    344
60.01,63.1283650964577,0.,60.01,-63.1283650964577,                   235P    345
-6.31283650964577,6.31283650964577,-0.751000000000001,               235P    346
0.251000000000003;                                                   235P    347
128,1,1,1,1,0,0,1,0,0,-0.764696722532563,-0.764696722532563,         237P    348
0.508713305942872,0.508713305942872,-1.001,-1.001,0.701,0.701,       237P    349
1.,1.,1.,1.,-10.01,52.4692073894691,-61.7904831731011,-10.01,        237P    350
65.0098480775301,-64.0017364817767,7.01,52.4692073894691,            237P    351
-61.7904831731011,7.01,65.0098480775301,-64.0017364817767,           237P    352
-0.764696722532563,0.508713305942872,-1.001,0.701;                   237P    353
502,36,7.,65.,-64.,10.,65.,-60.9537201643428,10.,60.,                239P    354
-60.0720852608004,7.,60.,-63.1183650964577,10.,65.,                  239P    355
60.9537201643428,10.,60.,60.0720852608004,-10.,65.,-64.,-10.,        239P    356
65.,64.,7.,65.,64.,7.,60.,63.1183650964577,0.,60.,                   239P    357
63.1183650964577,0.,60.,-63.1183650964577,-10.,52.4790554669992,     239P    358
61.7922196548778,0.,52.4790554669992,61.7922196548778,-10.,50.,      239P    359
58.8377963958412,0.,50.,58.8377963958412,-10.,50.,33.,0.,50.,        239P    360
33.,-10.,52.4790554669992,-61.7922196548778,-10.,50.,                239P    361
-58.8377963958412,-10.,50.,-33.,-10.,53.,-30.,-10.,54.5,-30.,        239P    362
-10.,57.5,-27.,-10.,57.5,27.,-10.,54.5,30.,-10.,53.,30.,0.,54.5,     239P    363
-30.,0.,57.5,-27.,0.,57.5,27.,0.,54.5,30.,0.,53.,30.,0.,50.,         239P    364
-33.,0.,53.,-30.,0.,50.,-58.8377963958412,0.,52.4790554669992,       239P    365
-61.7922196548778;                                                   239P    366
504,54,91,239,1,239,2,93,239,2,239,3,95,239,3,239,4,97,239,4,        241P    367
239,1,99,239,2,239,5,101,239,6,239,5,103,239,6,239,3,105,239,7,      241P    368
239,1,107,239,8,239,7,109,239,8,239,9,111,239,5,239,9,113,239,       241P    369
10,239,6,115,239,9,239,10,117,239,11,239,10,119,239,12,239,11,       241P    370
121,239,12,239,4,123,239,13,239,8,125,239,14,239,13,127,239,11,      241P    371
239,14,129,239,13,239,15,131,239,15,239,16,133,239,16,239,14,        241P    372
135,239,17,239,15,137,239,18,239,17,139,239,16,239,18,141,239,7,     241P    373
239,19,143,239,20,239,19,145,239,20,239,21,147,239,22,239,21,        241P    374
149,239,22,239,23,151,239,24,239,23,153,239,24,239,25,155,239,       241P    375
26,239,25,157,239,26,239,27,159,239,17,239,27,161,239,28,239,29,     241P    376
163,239,29,239,24,165,239,23,239,28,167,239,29,239,30,169,239,       241P    377
25,239,30,171,239,30,239,31,173,239,31,239,26,175,239,31,239,32,     241P    378
177,239,27,239,32,179,239,21,239,33,181,239,33,239,34,183,239,       241P    379
34,239,22,185,239,35,239,20,187,239,33,239,35,189,239,32,239,18,     241P    380
191,239,19,239,36,193,239,36,239,35,195,239,28,239,34,197,239,       241P    381
12,239,36;                                                           241P    382
406,1,9Hantislide;                                                   243P    383
406,1,12Hanti slide:1;                                               245P    384
314,90.9803921568627,67.843137254902,13.7254901960784,30HPaint -     247P    385
 Enamel Glossy (Yellow);                                             247P    386
314,70.1960784313725,70.1960784313725,70.1960784313725,28HPaint      249P    387
- Enamel Glossy (Grey);                                              249P    388
314,62.7450980392157,62.7450980392157,62.7450980392157,13HSteel      251P    389
- Satin;                                                             251P    390
S      1G      3D    252P    390                                        T      1
